#!OML:ASF X:\für Bonn\!DataBase\2005_08_12_Daniel\c3d\Daniel.ASF
:FULLY-SPECIFIED
:DEGREES
171
root 1.15017 16.4161 7.935 -174.712 27.9315 551.42
lowerback 12.1059 -7.31345 4.7376
upperback 3.04544 -8.77039 1.59676
thorax -3.97704 -4.25513 0.407437
lowerneck -8.03806 5.67513 2.58422
upperneck -2.28201 7.91607 -13.6457
head 1.32565 3.91345 -4.20053
rclavicle -6.32135e-014 7.95139e-016
rhumerus -64.4886 10.4173 -88.2395
rradius 72.6825
rwrist -1.86502
rhand -24.8981 31.0053
rfingers 7.12502
rthumb 1.60994 1.03167
lclavicle -6.32135e-014 7.95139e-016
lhumerus -61.536 -2.56314 97.7727
lradius 104.225
lwrist 10.0245
lhand -9.66373 -14.7596
lfingers 7.12502
lthumb 16.3074 14.5747
rfemur -25.0278 14.1715 15.7224
rtibia 44.0212
rfoot -18.5219 1.04232
rtoes -28.5497
lfemur -1.7299 0.474938 -21.1412
ltibia 89.9728
lfoot -3.98289 1.17278
ltoes 3.0628
172
root 1.30941 16.2996 7.71101 -175.232 27.3798 551.615
lowerback 12.7764 -7.17219 5.25344
upperback 3.20445 -8.4422 1.57121
thorax -4.23967 -4.07981 0.12077
lowerneck -8.56547 5.52487 2.14805
upperneck -2.04169 7.7981 -13.0799
head 1.55012 3.84971 -4.37937
rclavicle -1.31198e-014 1.03368e-014
rhumerus -63.4196 10.4916 -88.654
rradius 72.6967
rwrist -1.48616
rhand -24.9765 30.5376
rfingers 7.12502
rthumb 1.53428 0.563344
lclavicle -1.31198e-014 1.03368e-014
lhumerus -61.5724 -1.75091 97.9382
lradius 102.333
lwrist 10.0612
lhand -9.82626 -14.5424
lfingers 7.12502
lthumb 16.1509 14.8047
rfemur -23.6858 13.3824 16.2657
rtibia 45.1246
rfoot -20.6561 2.14368
rtoes -28.1845
lfemur -3.42917 0.9032 -20.3739
ltibia 93.332
lfoot -4.35967 0.823624
ltoes 3.57139
173
root 1.46453 16.198 7.47939 -175.747 26.8322 551.738
lowerback 13.3242 -6.99362 5.73256
upperback 3.36729 -8.07655 1.51527
thorax -4.42229 -3.88724 -0.207599
lowerneck -9.15911 5.34367 1.37987
upperneck -1.78169 7.65841 -12.5725
head 1.66444 3.76457 -4.04164
rclavicle -9.0447e-014 -2.38542e-015
rhumerus -62.3217 10.0697 -88.9009
rradius 72.937
rwrist -0.233059
rhand -25.0226 30.0869
rfingers 7.12502
rthumb 1.48969 0.112397
lclavicle -9.0447e-014 -2.38542e-015
lhumerus -61.5748 -1.11051 98.1108
lradius 100.606
lwrist 10.036
lhand -10.3152 -13.936
lfingers 7.12502
lthumb 15.6801 15.4486
rfemur -22.2592 12.5389 16.7409
rtibia 46.0411
rfoot -22.6862 3.19346
rtoes -27.6634
lfemur -5.12183 1.3709 -19.7253
ltibia 96.2752
lfoot -4.76281 0.481146
ltoes 3.53045
174
root 1.61521 16.1226 7.23767 -176.221 26.258 551.858
lowerback 13.7706 -6.81506 6.15748
upperback 3.52152 -7.7217 1.48567
thorax -4.54155 -3.70018 -0.495492
lowerneck -9.45165 5.25413 0.683644
upperneck -1.68441 7.62476 -12.1856
head 1.69014 3.748 -3.76696
rclavicle 2.42517e-014 7.95139e-015
rhumerus -61.0782 9.54565 -89.1245
rradius 73.2107
rwrist 1.40189
rhand -25.0288 29.8082
rfingers 7.12502
rthumb 1.48377 -0.166434
lclavicle 2.42517e-014 7.95139e-015
lhumerus -61.6016 -0.516415 98.2545
lradius 99.078
lwrist 9.92186
lhand -11.1242 -13.0676
lfingers 7.12502
lthumb 14.9008 16.3765
rfemur -20.6613 11.8001 17.1992
rtibia 46.6527
rfoot -24.5798 4.15499
rtoes -26.8956
lfemur -6.84996 1.7699 -19.1955
ltibia 98.814
lfoot -5.11343 0.0807959
ltoes 2.94533
175
root 1.76263 16.0674 6.98814 -176.719 25.7176 551.935
lowerback 14.2072 -6.59998 6.46452
upperback 3.66485 -7.33416 1.45556
thorax -4.64429 -3.49712 -0.732881
lowerneck -9.22237 5.29552 0.452495
upperneck -1.98542 7.68208 -12.1563
head 1.54008 3.80503 -3.71707
rclavicle 1.98785e-014 -1.98785e-014
rhumerus -59.8184 9.13916 -89.451
rradius 73.6514
rwrist 3.05167
rhand -25.034 29.6395
rfingers 7.12502
rthumb 1.47873 -0.335077
lclavicle 1.98785e-014 -1.98785e-014
lhumerus -61.7839 -0.0559445 98.4122
lradius 97.8127
lwrist 9.79921
lhand -11.9521 -11.9125
lfingers 7.12502
lthumb 14.1031 17.5889
rfemur -18.8415 11.0949 17.6568
rtibia 46.9294
rfoot -26.2858 4.76877
rtoes -26.7487
lfemur -8.49574 2.14791 -18.8413
ltibia 100.928
lfoot -5.35616 -0.406531
ltoes 2.13016
176
root 1.90594 16.0272 6.73602 -177.137 25.1353 551.977
lowerback 14.5513 -6.38827 6.67639
upperback 3.78046 -6.97467 1.43117
thorax -4.7116 -3.30965 -0.919515
lowerneck -8.913 5.38095 0.482523
upperneck -2.36396 7.77395 -12.3661
head 1.37958 3.88287 -3.80179
rclavicle -6.36111e-015 -1.59028e-014
rhumerus -58.5096 8.85412 -89.8303
rradius 74.1748
rwrist 4.63622
rhand -25.1304 29.6698
rfingers 7.12502
rthumb 1.38566 -0.305405
lclavicle -6.36111e-015 -1.59028e-014
lhumerus -62.0402 0.334583 98.5489
lradius 96.725
lwrist 9.59984
lhand -12.8648 -10.825
lfingers 7.12502
lthumb 13.2235 18.7356
rfemur -16.9206 10.6458 18.0867
rtibia 46.8549
rfoot -27.8078 4.99206
rtoes -26.6204
lfemur -10.2845 2.58057 -18.522
ltibia 102.776
lfoot -5.5884 -0.897391
ltoes 1.24773
177
root 2.04796 16.0002 6.48379 -177.574 24.5644 551.911
lowerback 14.8986 -6.15426 6.67185
upperback 3.83816 -6.62299 1.39956
thorax -4.81637 -3.1298 -0.994005
lowerneck -8.38448 5.5431 0.818972
upperneck -2.77813 7.93663 -12.8177
head 1.20318 4.0002 -4.03369
rclavicle 5.58585e-014 -3.33958e-014
rhumerus -57.2745 8.9548 -90.3608
rradius 74.8753
rwrist 5.71503
rhand -25.2532 29.7412
rfingers 7.12502
rthumb 1.26705 -0.234789
lclavicle 5.58585e-014 -3.33958e-014
lhumerus -62.6559 0.654696 98.6583
lradius 96.0105
lwrist 9.49861
lhand -13.6002 -10.0219
lfingers 7.12502
lthumb 12.5146 19.5833
rfemur -14.8825 10.3077 18.4293
rtibia 46.4862
rfoot -29.0721 4.94847
rtoes -26.5307
lfemur -12.0553 3.10361 -18.3343
ltibia 104.286
lfoot -5.78579 -1.38797
ltoes 0.478173
178
root 2.18487 15.9923 6.22804 -177.967 23.9801 551.817
lowerback 15.1826 -5.8817 6.60749
upperback 3.86783 -6.239 1.37039
thorax -4.90731 -2.93627 -1.04705
lowerneck -7.65894 5.71309 1.38952
upperneck -3.24415 8.08755 -13.4474
head 0.99701 4.11876 -4.38557
rclavicle -3.37934e-015 -2.8625e-014
rhumerus -56.2408 9.19921 -90.9701
rradius 75.784
rwrist 6.24974
rhand -25.4344 29.9235
rfingers 7.12502
rthumb 1.09206 -0.0534214
lclavicle -3.37934e-015 -2.8625e-014
lhumerus -63.5354 0.868982 98.8222
lradius 95.6585
lwrist 9.35983
lhand -14.0892 -9.57876
lfingers 7.12502
lthumb 12.0431 20.0547
rfemur -12.7591 10.0293 18.7565
rtibia 45.8389
rfoot -30.0428 4.66795
rtoes -26.4885
lfemur -13.8281 3.60854 -18.2486
ltibia 105.469
lfoot -6.05377 -1.7792
ltoes 0.288715
179
root 2.31418 16.0049 5.97277 -178.312 23.403 551.66
lowerback 15.4288 -5.59277 6.47496
upperback 3.85282 -5.85692 1.29932
thorax -5.0233 -2.74832 -1.10915
lowerneck -6.6257 5.92452 2.20047
upperneck -3.88401 8.25629 -14.1605
head 0.698268 4.26168 -4.83487
rclavicle -3.24019e-014 -3.18055e-015
rhumerus -55.4769 9.54556 -91.7246
rradius 76.9347
rwrist 6.33568
rhand -25.6377 30.1835
rfingers 7.12502
rthumb 0.895628 0.205679
lclavicle -3.24019e-014 -3.18055e-015
lhumerus -64.5703 0.903477 98.9557
lradius 95.7844
lwrist 9.51177
lhand -14.1332 -9.24882
lfingers 7.12502
lthumb 12.0007 20.3871
rfemur -10.6462 9.79104 19.0181
rtibia 44.9634
rfoot -30.7082 4.3397
rtoes -26.699
lfemur -15.7172 4.13448 -18.3492
ltibia 106.328
lfoot -6.29641 -2.08559
ltoes -0.0864508
180
root 2.43911 16.0392 5.71998 -178.547 22.7906 551.421
lowerback 15.5417 -5.2546 6.21054
upperback 3.81254 -5.44848 1.23907
thorax -5.07983 -2.54894 -1.10399
lowerneck -6.19893 6.08403 2.53969
upperneck -4.11992 8.42401 -14.9214
head 0.591576 4.36791 -4.64073
rclavicle 4.81059e-014 -1.82882e-014
rhumerus -54.7765 9.97716 -92.5301
rradius 78.2663
rwrist 5.85155
rhand -25.7596 30.3886
rfingers 7.12502
rthumb 0.777924 0.410294
lclavicle 4.81059e-014 -1.82882e-014
lhumerus -65.5464 0.758582 99.2379
lradius 96.2266
lwrist 9.67683
lhand -13.7705 -9.20074
lfingers 7.12502
lthumb 12.3503 20.4145
rfemur -8.65447 9.5737 19.2034
rtibia 43.9129
rfoot -31.0801 3.85575
rtoes -27.0331
lfemur -17.8386 4.54265 -18.7103
ltibia 106.859
lfoot -6.48339 -2.23768
ltoes -0.0950579
181
root 2.55923 16.0957 5.46219 -178.707 22.196 550.935
lowerback 15.4346 -4.85506 5.72574
upperback 3.71958 -5.03142 1.10123
thorax -5.06358 -2.35057 -1.0736
lowerneck -5.96091 6.20697 2.4635
upperneck -4.11606 8.59752 -14.9014
head 0.564092 4.46549 -4.62252
rclavicle -5.24792e-014 1.59028e-014
rhumerus -54.1004 10.4063 -93.4277
rradius 79.6957
rwrist 5.02582
rhand -25.6737 30.5888
rfingers 7.12502
rthumb 0.860868 0.610742
lclavicle -5.24792e-014 1.59028e-014
lhumerus -66.573 0.450074 99.5455
lradius 96.9607
lwrist 10.091
lhand -13.0401 -9.26005
lfingers 7.12502
lthumb 13.0545 20.3114
rfemur -6.81803 9.47547 19.1102
rtibia 42.7754
rfoot -31.2723 3.29132
rtoes -27.6107
lfemur -20.0869 4.87457 -19.54
ltibia 106.939
lfoot -6.58296 -2.17069
ltoes -0.0919308
182
root 2.67361 16.1675 5.20171 -178.838 21.5899 550.14
lowerback 15.1926 -4.41595 4.90035
upperback 3.56557 -4.63611 0.929343
thorax -5.02043 -2.16514 -0.888563
lowerneck -5.80071 6.316 2.24355
upperneck -3.97814 8.77133 -14.7555
head 0.575081 4.55423 -4.5385
rclavicle 4.55217e-014 0
rhumerus -53.4351 10.9996 -94.3519
rradius 81.0431
rwrist 4.00189
rhand -25.632 30.8545
rfingers 7.12502
rthumb 0.901169 0.876693
lclavicle 4.55217e-014 0
lhumerus -67.6424 0.0940538 99.9204
lradius 97.813
lwrist 10.5954
lhand -11.9983 -9.47094
lfingers 7.12502
lthumb 14.0586 20.0336
rfemur -5.14983 9.42628 18.6785
rtibia 41.6314
rfoot -31.0497 2.70065
rtoes -27.827
lfemur -22.3067 5.02859 -20.8997
ltibia 106.533
lfoot -6.62834 -1.85235
ltoes -0.221136
183
root 2.7811 16.2495 4.94276 -178.921 21.0374 549.48
lowerback 14.973 -3.98162 4.21021
upperback 3.42623 -4.21629 0.754291
thorax -4.98966 -1.9659 -0.781228
lowerneck -5.70854 6.44123 2.06735
upperneck -3.69603 8.98647 -14.1916
head 0.656822 4.65509 -4.8127
rclavicle 4.01545e-014 -1.03368e-014
rhumerus -52.8134 11.7616 -95.3262
rradius 82.4317
rwrist 2.92437
rhand -25.4524 31.1586
rfingers 7.12502
rthumb 1.07467 1.18151
lclavicle 4.01545e-014 -1.03368e-014
lhumerus -68.5407 -0.477466 100.273
lradius 98.6348
lwrist 11.3147
lhand -10.8079 -9.6443
lfingers 7.12502
lthumb 15.2055 19.777
rfemur -3.53886 9.48888 18.3927
rtibia 40.5382
rfoot -30.3454 2.06876
rtoes -28.0297
lfemur -24.3377 5.18055 -22.1458
ltibia 105.737
lfoot -6.868 -1.75553
ltoes -0.921742
